<?xml version="1.0" encoding="utf-8"?>
<!-- Generator: Adobe Illustrator 21.0.0, SVG Export Plug-In . SVG Version: 6.00 Build 0)  -->
<svg version="1.1" id="Layer_1" xmlns="http://www.w3.org/2000/svg" xmlns:xlink="http://www.w3.org/1999/xlink" x="0px" y="0px"
	 viewBox="0 0 220 100" style="enable-background:new 0 0 220 100;" xml:space="preserve">
<style type="text/css">
	.st0{fill:#FFFFFF;}
</style>
<g>
	<path class="st0" d="M33.6,40.7c0.8,0.3,1.2,0.8,1.2,1.8s-0.2,2.1-0.2,3.2c0,0.2-0.4,0.2-0.4,0c-0.3-3.6-3-5-6.2-5
		c-5.1,0-8.3,3.1-8.1,9.2c0.2,6.6,4.1,9.3,8.7,9.3c4,0,5.5-1.9,6-4.9c0-0.2,0.4-0.3,0.4,0c0,0.7,0,1.6,0,2.1c0,2.2-0.5,2.4-1.6,2.9
		c-0.7,0.3-2.4,0.8-4.9,0.8c-6.8,0-11-3.9-11-9.8c0-6.3,4-10.3,10.7-10.3C30.1,39.9,32,40.1,33.6,40.7z"/>
	<path class="st0" d="M56.7,60c-5.9,0-10.1-3.2-10.3-9.6c-0.2-6.1,4.4-10.5,10.7-10.5s9.8,4.8,9.8,9.7C66.9,55.6,62.5,60,56.7,60z
		 M48.9,49.9c0,5.5,3,9.3,7.9,9.3c4.7,0,7.7-3.4,7.7-8.3c0-5.1-2.6-10.3-8.5-10.2C51.2,40.9,48.9,44.6,48.9,49.9z"/>
	<path class="st0" d="M82.3,49.3c-1.2-2.8-2-4.7-3.1-6.9c-0.6-1.2-1.1-1.6-2.3-1.7c-0.2,0-0.2-0.3,0-0.3c0.9,0,2.3,0.1,2.9,0.1
		c1.1,0,2.5-0.1,3.4-0.1c0.3,0,0.2,0.3,0,0.3c-1.5,0.1-1.9,0.6-1.5,1.6c0.7,2,1.6,3.8,2.6,6.3c0.8,2,2.1,4.8,3.4,7.6
		c1-2.3,2.1-5.1,3.1-7.8c0.8-2.1,1.4-3.8,2-5.6c0.5-1.7,0.4-2-1-2.1c-0.2,0-0.2-0.3,0-0.3c0.8,0,2,0.1,2.5,0.1
		c0.6,0,1.5-0.1,2.4-0.1c0.3,0,0.2,0.3,0,0.3c-1,0.1-1.6,0.8-2.4,2.6c-1.1,2.5-1.7,3.8-2.5,5.8c-2.1,5.1-3.9,9.5-4.3,10.6
		c-0.1,0.2-0.2,0.3-0.3,0.3c-0.1,0-0.2-0.1-0.3-0.3C85.5,56.3,84.1,53.4,82.3,49.3z"/>
	<path class="st0" d="M111.9,56.6c0.1,1.9,0.4,2,2,2c1.3,0,1.8,0,2.6,0c2.6-0.1,3.1-1.7,3.5-3.7c0-0.2,0.4-0.2,0.4,0
		c0,1.2,0,3-0.2,3.8c-0.1,0.7-0.7,0.9-1.8,0.9c-1.6,0-4.4-0.1-7.3-0.1c-0.7,0-2.5,0.1-3.5,0.1c-0.2,0-0.2-0.3,0-0.3
		c1.6-0.2,2-0.5,2-3.1c0.1-2.2,0.1-4.3,0.1-6.5c0-1.9,0-3.6-0.1-5.5c-0.1-2.6-0.1-3.1-2.1-3.4c-0.2,0-0.3-0.3,0-0.3
		c1,0,2.6,0.1,3.6,0.1c2,0,4.9-0.1,6.5-0.1c0.9,0,1.4,0,1.3,0.8s-0.2,1.9-0.3,3c0,0.2-0.4,0.2-0.4,0c0-1.6-0.5-2.6-2.1-2.7
		c-1.5-0.1-2.5-0.1-4.3-0.1c0,2.6,0,4.9,0,7.8c1.3,0.1,3.3,0.1,5.2,0c0.9-0.1,0.9-0.3,1.1-0.3c0.1,0,0,0.2,0,0.8
		c-0.1,0.7-0.2,1.6-0.3,1.9c-0.1,0.2-0.4,0.2-0.4,0c0-1.2-0.8-1.2-2-1.3c-0.6,0-2.5,0-3.5,0C111.8,51.6,111.8,54.6,111.9,56.6z"/>
	<path class="st0" d="M134.7,49.4c0-2.3,0-3.8-0.1-6.2c-0.1-1.7-0.6-2.3-2.2-2.5c-0.2,0-0.3-0.3,0-0.3c0.7,0,2.3,0.1,3,0.1
		c1,0,2.6-0.2,3.9-0.1c5.4,0.1,6.1,3.2,6.1,5.1c0,2.3-1.2,4.1-3.5,5.3c0.5,0.7,1.6,2.4,2.9,4.1c1.5,1.9,2.4,2.9,3.5,3.7
		c0.8,0.6,1.6,0.7,2.2,0.7c0.2,0,0.3,0.3,0,0.3c-0.7,0.1-2.2,0-2.9-0.1c-2.2-0.4-3-1.3-5.6-4.8c-1-1.4-1.7-2.5-2.3-3.5
		c-1,0.1-2,0.1-3.2,0c0,2.1,0,3.8,0.1,4.7c0.1,2.9,0.4,3.2,2.2,3.4c0.2,0,0.3,0.3,0,0.3c-1.2,0-2.6-0.2-3.2-0.2
		c-0.7,0-2.1,0.1-3.2,0.2c-0.3,0-0.2-0.3,0-0.3c1.6-0.2,2-0.3,2-3.3C134.8,53.7,134.7,51.6,134.7,49.4z M139.3,41.1
		c-0.8-0.1-1.8-0.1-2.4,0c0,1.9,0,3.5,0,9.1c1.1,0.2,2.3,0.3,3.8,0.1c2-0.2,2.8-2.2,2.8-4.2C143.4,43.3,142.2,41.3,139.3,41.1z"/>
	<path class="st0" d="M169.6,60c-6,0-8.2-2.8-8.2-9.1c0-2.6,0-5.9,0-6.9c-0.1-3.1-0.6-3.2-2.3-3.4c-0.2,0-0.2-0.3,0-0.3
		c1,0,2.5,0.1,3.3,0.1c0.5,0,2-0.1,3-0.1c0.2,0,0.2,0.3,0,0.3c-1.3,0.2-1.7,0.4-1.8,3.4c0,0.9,0,4.1,0,6.8c0,5,0.9,8.3,6,8.3
		c4.9,0,6.1-4.2,6.1-8.7c0-1.3,0-4.5-0.1-7.4c-0.1-2.1-0.6-2.3-1.9-2.5c-0.2,0-0.2-0.3,0-0.3c0.9,0,2.1,0.1,2.7,0.1s1.7-0.1,2.5-0.1
		c0.2,0,0.2,0.3,0,0.3c-1.1,0.1-1.6,0.7-1.6,2.5c-0.1,2.4-0.1,5.5-0.1,7.2C177.3,56.2,175.2,60,169.6,60z"/>
	<path class="st0" d="M195.4,41.1c0,1.8,0,8,0,9.4c0,1.6,0.1,4.5,0.1,5.4c0.1,2.9,0.7,3.1,2.6,3.4c0.2,0,0.2,0.3,0,0.3
		c-1.2,0-2.5-0.1-3.5-0.1c-0.6,0-2.1,0.1-2.8,0.1c-0.3,0-0.2-0.3,0-0.3c1.1-0.1,1.4-0.2,1.4-3c0-1.1,0-4.6,0-5.7c0-2.4,0-5.2,0-6.3
		c-0.1-3-0.3-3.4-2.2-3.6c-0.2,0-0.2-0.3,0-0.3c0.7,0,2,0.1,2.9,0.1c1.2,0,2.4-0.2,4-0.1c4.7,0.2,6.4,2.7,6.4,5.1
		c0.1,3.6-2.6,6-6.3,6c-0.7,0-1.6-0.2-2-0.4c-0.2-0.1-0.2-0.4,0.1-0.4c0.2,0,0.6,0.1,0.9,0.1c3.1,0,5-1.7,5-5.1
		c0-2.5-1.6-4.2-4.3-4.5C196.9,41,195.9,41.1,195.4,41.1z"/>
</g>
</svg>
